<svg width="30" height="28" viewBox="0 0 30 28" fill="none" xmlns="http://www.w3.org/2000/svg">
<path fill-rule="evenodd" clip-rule="evenodd" d="M11.418 5.126C10.74 6.0665 10.5 7.241 10.5 8V9.5H19.5V8C19.5 7.2395 19.26 6.0665 18.5835 5.126C17.961 4.262 16.911 3.5 15 3.5C13.089 3.5 12.039 4.262 11.418 5.126ZM22.5 9.5V8C22.5 6.7595 22.14 4.934 21.018 3.374C19.839 1.7375 17.889 0.5 15 0.5C12.111 0.5 10.161 1.7375 8.982 3.374C7.86 4.934 7.5 6.7595 7.5 8V9.5H1.5C1.10218 9.5 0.720644 9.65804 0.43934 9.93934C0.158035 10.2206 0 10.6022 0 11C0 11.3978 0.158035 11.7794 0.43934 12.0607C0.720644 12.342 1.10218 12.5 1.5 12.5H1.6425L3.0075 26.15C3.04469 26.52 3.21798 26.863 3.49376 27.1124C3.76954 27.3619 4.12814 27.5 4.5 27.5H25.5C25.8719 27.5 26.2305 27.3619 26.5062 27.1124C26.782 26.863 26.9553 26.52 26.9925 26.15L28.3575 12.5H28.5C28.8978 12.5 29.2794 12.342 29.5607 12.0607C29.842 11.7794 30 11.3978 30 11C30 10.6022 29.842 10.2206 29.5607 9.93934C29.2794 9.65804 28.8978 9.5 28.5 9.5H22.5ZM10.5 17C10.5 16.6022 10.342 16.2206 10.0607 15.9393C9.77935 15.658 9.39782 15.5 9 15.5C8.60217 15.5 8.22064 15.658 7.93934 15.9393C7.65803 16.2206 7.5 16.6022 7.5 17V20C7.5 20.3978 7.65803 20.7794 7.93934 21.0607C8.22064 21.342 8.60217 21.5 9 21.5C9.39782 21.5 9.77935 21.342 10.0607 21.0607C10.342 20.7794 10.5 20.3978 10.5 20V17ZM16.5 17C16.5 16.6022 16.342 16.2206 16.0607 15.9393C15.7794 15.658 15.3978 15.5 15 15.5C14.6022 15.5 14.2206 15.658 13.9393 15.9393C13.658 16.2206 13.5 16.6022 13.5 17V20C13.5 20.3978 13.658 20.7794 13.9393 21.0607C14.2206 21.342 14.6022 21.5 15 21.5C15.3978 21.5 15.7794 21.342 16.0607 21.0607C16.342 20.7794 16.5 20.3978 16.5 20V17ZM22.5 17C22.5 16.6022 22.342 16.2206 22.0607 15.9393C21.7794 15.658 21.3978 15.5 21 15.5C20.6022 15.5 20.2206 15.658 19.9393 15.9393C19.658 16.2206 19.5 16.6022 19.5 17V20C19.5 20.3978 19.658 20.7794 19.9393 21.0607C20.2206 21.342 20.6022 21.5 21 21.5C21.3978 21.5 21.7794 21.342 22.0607 21.0607C22.342 20.7794 22.5 20.3978 22.5 20V17Z" fill="white"/>
</svg>
