<svg width="12" height="12" viewBox="0 0 12 12" fill="none" xmlns="http://www.w3.org/2000/svg">
<path d="M8.00051 8.52832L9.03383 7.49459C9.173 7.35708 9.34909 7.26296 9.5407 7.22363C9.73232 7.18431 9.93123 7.20149 10.1133 7.27307L11.3726 7.77609C11.5566 7.8508 11.7143 7.97831 11.826 8.14256C11.9376 8.30681 11.9982 8.50045 12 8.69907V11.0065C11.9989 11.1416 11.9705 11.2751 11.9165 11.399C11.8625 11.5228 11.784 11.6345 11.6858 11.7272C11.5875 11.8199 11.4715 11.8917 11.3448 11.9384C11.218 11.985 11.0831 12.0056 10.9482 11.9987C2.12352 11.4495 0.342894 3.97343 0.00614338 1.11221C-0.00948881 0.971699 0.0047939 0.829474 0.0480519 0.694886C0.0913098 0.560298 0.162563 0.436399 0.257123 0.331338C0.351683 0.226277 0.467407 0.142436 0.596683 0.0853313C0.725958 0.0282263 0.865855 -0.00084875 1.00717 1.88606e-05H3.23526C3.43408 0.000607621 3.62819 0.0606895 3.7926 0.172537C3.95702 0.284384 4.08422 0.442881 4.15786 0.627643L4.66068 1.88751C4.73461 2.0689 4.75347 2.26807 4.71491 2.46013C4.67635 2.65218 4.58208 2.82862 4.44387 2.96739L3.41055 4.00112C3.41055 4.00112 4.00563 8.02991 8.00051 8.52832Z" fill="white"/>
</svg>
