<svg width="26" height="26" viewBox="0 0 26 26" fill="none" xmlns="http://www.w3.org/2000/svg">
<path d="M13 0.52002C6.10742 0.52002 0.52002 6.10742 0.52002 13C0.52002 19.8926 6.10742 25.48 13 25.48C19.8926 25.48 25.48 19.8926 25.48 13C25.48 6.10742 19.8926 0.52002 13 0.52002ZM17.7996 14.6003C17.7996 14.6003 18.9033 15.6897 19.175 16.1954C19.1828 16.2058 19.1867 16.2162 19.1893 16.2214C19.2998 16.4073 19.3258 16.5516 19.2712 16.6595C19.1802 16.8389 18.8682 16.9273 18.7616 16.9351H16.8116C16.6764 16.9351 16.393 16.9 16.0498 16.6634C15.7859 16.4788 15.5259 16.1759 15.2724 15.8808C14.8941 15.4414 14.5665 15.0618 14.2363 15.0618C14.1944 15.0617 14.1527 15.0683 14.1128 15.0813C13.8632 15.1619 13.5434 15.5181 13.5434 16.4671C13.5434 16.7635 13.3094 16.9338 13.1443 16.9338H12.2512C11.947 16.9338 10.3623 16.8272 8.95832 15.3465C7.23972 13.533 5.69272 9.89562 5.67972 9.86182C5.58222 9.62652 5.78372 9.50042 6.00342 9.50042H7.97292C8.23552 9.50042 8.32132 9.66032 8.38112 9.80202C8.45132 9.96712 8.70872 10.6236 9.13122 11.362C9.81632 12.5658 10.2362 13.0546 10.5729 13.0546C10.6361 13.0539 10.6981 13.0378 10.7536 13.0078C11.193 12.7634 11.1111 11.1969 11.0916 10.8719C11.0916 10.8108 11.0903 10.1712 10.8654 9.86442C10.7042 9.64212 10.4299 9.55762 10.2635 9.52642C10.3309 9.43348 10.4196 9.35813 10.5222 9.30672C10.8238 9.15592 11.3672 9.13382 11.9067 9.13382H12.207C12.792 9.14162 12.9428 9.17932 13.1547 9.23262C13.5837 9.33532 13.5928 9.61222 13.5551 10.5599C13.5434 10.829 13.5317 11.1332 13.5317 11.492C13.5317 11.57 13.5278 11.6532 13.5278 11.7416C13.5148 12.2239 13.4992 12.7712 13.8398 12.9961C13.8842 13.024 13.9356 13.0388 13.988 13.039C14.1063 13.039 14.4625 13.039 15.4271 11.3841C15.7246 10.8515 15.9831 10.2979 16.2006 9.72792C16.2201 9.69412 16.2773 9.59012 16.3449 9.54982C16.3948 9.52439 16.4501 9.51145 16.5061 9.51212H18.8214C19.0736 9.51212 19.2465 9.54982 19.279 9.64732C19.3362 9.80202 19.2686 10.2739 18.2117 11.7052L17.7398 12.3279C16.7817 13.5837 16.7817 13.6474 17.7996 14.6003Z" fill="white"/>
</svg>
