<svg width="25" height="24" viewBox="0 0 25 24" fill="none" xmlns="http://www.w3.org/2000/svg">
<path d="M23.2 5.55C19.6 -4.76837e-07 12.25 -1.65 6.54997 1.8C0.999974 5.25 -0.800025 12.75 2.79997 18.3L3.09997 18.75L1.89997 23.25L6.39997 22.05L6.84997 22.35C8.79997 23.4 10.9 24 13 24C15.25 24 17.5 23.4 19.45 22.2C25 18.6 26.65 11.25 23.2 5.55ZM20.05 17.1C19.45 18 18.7 18.6 17.65 18.75C17.05 18.75 16.3 19.05 13.3 17.85C10.75 16.65 8.64997 14.7 7.14997 12.45C6.24997 11.4 5.79997 10.05 5.64997 8.7C5.64997 7.5 6.09997 6.45 6.84997 5.7C7.14997 5.4 7.44997 5.25 7.74997 5.25H8.49997C8.79997 5.25 9.09997 5.25 9.24997 5.85C9.54997 6.6 10.3 8.4 10.3 8.55C10.45 8.7 10.45 9 10.3 9.15C10.45 9.45 10.3 9.75 10.15 9.9C9.99997 10.05 9.84997 10.35 9.69997 10.5C9.39997 10.65 9.24997 10.95 9.39997 11.25C9.99997 12.15 10.75 13.05 11.5 13.8C12.4 14.55 13.3 15.15 14.35 15.6C14.65 15.75 14.95 15.75 15.1 15.45C15.25 15.15 16 14.4 16.3 14.1C16.6 13.8 16.75 13.8 17.05 13.95L19.45 15.15C19.75 15.3 20.05 15.45 20.2 15.6C20.35 16.05 20.35 16.65 20.05 17.1Z" fill="white"/>
</svg>
