<svg width="149" height="44" viewBox="0 0 149 44" fill="none" xmlns="http://www.w3.org/2000/svg">
<path d="M76.9959 11.241C76.0775 -3.4992 46.6889 -2.07569 47.9287 6.37354C50.7298 10.7818 56.0106 6.92459 59.9597 6.74091C66.3885 5.91435 68.1334 14.134 62.1179 16.2463C56.0106 18.2208 49.3982 17.8535 42.9694 18.8178C42.9694 14.3177 42.9235 9.40424 42.9694 4.53675C43.0153 2.05708 41.9592 0.403983 39.4795 0.358063C31.3058 0.266224 23.1321 0.220293 14.9584 0.403972C11.0552 0.495811 9.67758 2.28669 9.63166 6.32763C9.26431 15.5116 11.2389 26.8078 3.24882 33.558C-1.20539 37.0479 -0.838036 40.2164 2.88146 42.5124C2.88146 42.5583 2.92738 42.6042 2.92738 42.6501C3.84577 42.8797 4.71825 43.293 5.68256 43.3849C6.41728 43.4308 7.19792 43.293 7.93264 43.3389C7.93264 43.3389 7.93263 43.293 7.88671 43.293C16.4278 42.0073 21.0198 35.6244 23.0862 26.9915C23.8668 23.7771 23.7749 20.2872 23.9586 16.9351C24.0505 15.3279 23.9586 13.8125 26.2546 13.8585C28.4588 13.8585 28.5965 15.2361 28.5965 16.9351C28.5506 23.9149 28.5506 30.8947 28.5965 37.8745C28.0914 46.2778 38.5611 40.0786 42.8776 41.7777C49.1226 43.6145 54.3116 42.1909 59.5923 38.9766C67.1232 34.3387 69.0518 44.1196 73.552 40.6756C75.0214 39.3898 76.9041 37.4612 76.9959 35.7622C77.3174 27.5885 77.2715 19.3688 76.9959 11.241ZM39.8469 20.6087C39.8469 21.2056 39.6632 21.9863 39.2958 22.3995C33.8773 28.0477 36.2192 33.2366 38.5152 39.2521H31.5813C31.5813 31.9049 31.6272 24.7415 31.5354 17.578C31.4895 14.9146 31.9027 11.9298 28.2292 11.0574C23.4994 9.86345 20.7442 11.9298 20.8361 16.8433C21.6626 26.4405 17.2084 41.2266 5.59073 40.0787C3.4325 39.895 2.60594 38.5633 4.07537 36.8643C12.9838 30.2059 12.4328 20.5168 12.4787 11.0574C12.5246 3.43468 12.3869 3.43468 20.0095 3.43468C26.5301 3.43468 33.0507 3.43468 39.9387 3.43468C39.8469 9.54201 39.8928 15.0524 39.8469 20.6087ZM55.4137 32.0427C54.633 32.0427 53.1177 30.2977 53.3013 29.7008C53.5309 28.6905 54.7708 27.4507 55.8269 27.2211C56.5616 27.0374 57.6178 28.415 59.3168 29.6549C57.48 30.8488 56.4239 32.0427 55.4137 32.0427Z" fill="white"/>
<path d="M114.237 18.9556C119.655 18.3586 124.661 17.6239 129.712 17.2565C134.258 16.8892 137.105 14.8228 137.243 11.241C138.161 4.6286 131.135 1.78158 125.809 4.6286C124.385 5.3174 122.686 5.45515 121.079 5.68475C120.849 5.73067 120.161 4.21532 120.298 4.12348C125.304 -1.61649 136.646 -0.652175 142.937 2.69997C146.932 4.81228 148.952 8.16443 148.952 12.7105C148.952 19.9199 148.906 27.0834 148.998 34.2928C149.044 37.0479 148.263 39.2062 145.784 40.5838C139.493 43.8441 138.85 33.6499 129.666 39.7572C118.967 46.3697 117.222 40.0327 108.818 41.2266C104.686 42.145 101.839 39.2521 101.701 34.8438C101.517 28.9661 101.425 23.0883 101.242 17.2106C101.15 14.1799 99.6344 12.2054 96.5118 12.0676C93.4352 11.9298 91.4147 13.6289 91.277 16.7055C90.9555 22.9047 90.9096 29.1038 90.7719 35.2571C90.6341 39.4358 87.7871 41.8695 83.7002 41.3185C80.7614 40.9511 78.4195 38.4715 78.3735 35.2571C78.2817 25.568 78.2817 15.8789 78.3735 6.18987C78.4195 3.29693 80.0726 1.41422 83.0573 1.41422C117.865 2.28669 114.145 -4.05023 114.237 18.9556ZM109.507 38.0123C107.119 32.5478 106.339 27.2211 110.747 22.2618C111.114 21.8485 111.022 21.0219 111.022 20.3791C111.068 15.9249 110.977 11.4247 111.068 6.97051C111.114 5.0878 110.563 4.12348 108.497 4.1694C100.323 4.21532 92.1495 4.21532 83.9757 4.1694C82.0471 4.1694 81.1746 5.17964 81.1746 6.97051C81.1746 16.2463 81.1287 25.4762 81.2665 34.752C81.2665 35.854 82.093 37.3235 83.0114 37.9204C85.4452 39.4817 87.6952 37.9204 87.7871 34.5224C87.9248 28.8742 87.6952 23.1802 88.1085 17.5321C88.2922 15.3279 89.4402 12.9401 90.8637 11.1951C93.0219 8.57769 96.3281 8.62362 99.3129 9.67977C102.941 10.9655 104.272 14.134 104.364 17.7157C104.548 23.1802 104.364 28.5987 104.456 34.0632C104.548 37.7827 105.788 38.7011 109.507 38.0123ZM130.952 29.7926C129.299 28.5069 128.334 27.0834 127.508 27.2211C126.497 27.3589 125.166 28.5987 124.89 29.6089C124.707 30.2518 126.222 31.9968 127.003 32.0427C128.059 32.0886 129.161 30.8947 130.952 29.7926Z" fill="white"/>
</svg>
